<?xml version="1.0" standalone="no"?>
<!DOCTYPE svg PUBLIC "-//W3C//DTD SVG 20010904//EN"
 "http://www.w3.org/TR/2001/REC-SVG-20010904/DTD/svg10.dtd">
<svg version="1.0" xmlns="http://www.w3.org/2000/svg"
 width="180.000000pt" height="180.000000pt" viewBox="0 0 180.000000 180.000000"
 preserveAspectRatio="xMidYMid meet">

<g transform="translate(0.000000,180.000000) scale(0.100000,-0.100000)"
fill="#000000" stroke="none">
<path d="M210 1787 c0 -6 -23 -33 -52 -59 -48 -45 -55 -48 -106 -48 -38 0 -53
-4 -50 -12 3 -7 19 -14 36 -16 34 -3 35 -22 1 -22 -14 0 -19 -7 -19 -24 0 -14
-5 -28 -10 -31 -7 -5 -10 -91 -9 -256 1 -199 4 -247 14 -239 7 6 19 25 26 43
15 40 38 67 56 67 33 0 -6 -118 -57 -172 l-40 -41 0 -300 c1 -266 2 -298 16
-293 9 3 18 6 20 6 2 0 4 9 4 21 0 15 -4 19 -16 15 -10 -4 -14 -1 -11 6 5 15
61 12 90 -4 15 -8 20 -5 24 11 3 11 14 23 24 26 10 4 19 10 19 15 0 5 7 7 17
3 13 -5 15 -2 10 17 -4 15 -3 20 4 13 15 -15 0 -82 -22 -101 -11 -9 -19 -25
-19 -35 0 -9 -7 -20 -15 -23 -8 -3 -23 -21 -34 -40 -11 -19 -27 -34 -35 -34
-16 0 -39 -33 -30 -43 3 -2 7 -24 9 -47 4 -42 4 -42 -16 -24 -11 10 -18 25
-16 34 2 9 -2 25 -9 35 -12 16 -14 1 -14 -108 l0 -127 900 0 900 0 0 464 0
465 -27 4 -28 4 28 2 27 1 0 259 c0 256 0 259 -26 317 -14 33 -37 73 -50 91
-13 17 -24 34 -24 38 0 13 59 -26 79 -52 l20 -28 1 118 0 117 -795 0 c-622 0
-795 -3 -795 -13z m270 -22 c0 -8 -2 -15 -4 -15 -2 0 -6 7 -10 15 -3 8 -1 15
4 15 6 0 10 -7 10 -15z m1064 -43 c-6 -4 -16 -16 -23 -27 -10 -17 -12 -17 -7
-2 3 10 6 23 6 28 0 5 8 9 18 9 10 0 13 -3 6 -8z m-953 -37 c-36 -19 -69 -39
-75 -45 -5 -5 -14 -10 -19 -10 -14 0 44 45 88 69 22 11 47 21 55 21 8 0 -14
-16 -49 -35z m-131 -36 c0 -27 -4 -49 -10 -49 -5 0 -10 15 -10 33 0 17 -3 42
-6 55 -5 18 -3 21 10 16 12 -4 16 -19 16 -55z m1027 24 c-3 -10 -5 -4 -5 12 0
17 2 24 5 18 2 -7 2 -21 0 -30z m-1079 5 c-2 -13 -10 -23 -18 -23 -8 0 -16 10
-18 23 -3 17 2 22 18 22 16 0 21 -5 18 -22z m922 -44 c0 -21 -4 -33 -10 -29
-17 10 -11 65 7 65 2 0 3 -16 3 -36z m117 -11 c-3 -10 -5 -2 -5 17 0 19 2 27
5 18 2 -10 2 -26 0 -35z m-317 9 c86 -34 172 -166 190 -291 5 -38 15 -82 21
-97 6 -16 10 -54 10 -84 0 -30 4 -122 10 -204 l11 -148 -32 -51 c-17 -27 -29
-56 -26 -64 3 -8 1 -23 -5 -34 -6 -11 -12 -42 -15 -67 -5 -59 -10 -84 -26
-127 -18 -52 -36 -43 -44 23 -8 67 -13 79 -26 61 -7 -11 -9 -11 -7 1 4 35 -2
48 -26 54 -27 7 -35 26 -10 26 11 0 13 9 8 43 -8 58 -20 87 -37 87 -8 0 -29
16 -47 35 -41 43 -50 44 -39 4 5 -18 7 -35 5 -39 -3 -4 -44 -6 -92 -4 -49 3
-99 5 -113 6 -14 0 -35 -3 -47 -7 -18 -6 -23 -4 -23 11 0 29 29 108 44 119 22
18 44 58 67 125 38 114 58 120 104 30 23 -45 111 -130 134 -130 29 0 91 41 91
60 0 13 9 22 25 26 21 5 25 12 25 45 0 32 -7 46 -40 78 -22 21 -37 41 -33 45
12 12 40 6 66 -14 35 -27 42 -10 18 39 -24 46 -34 50 -128 56 -67 3 -72 2
-127 -34 -52 -35 -60 -37 -99 -30 -23 4 -45 8 -48 9 -4 0 -9 9 -12 19 -10 40
-51 54 -159 53 -106 -2 -138 -14 -138 -52 0 -10 -9 -37 -20 -61 -26 -58 -26
-105 0 -119 14 -7 26 -8 39 0 23 12 62 13 88 3 14 -6 9 -9 -21 -13 -23 -3 -43
-12 -50 -23 -9 -16 -4 -25 34 -58 25 -22 55 -42 68 -46 13 -3 28 -17 33 -30
19 -51 13 -60 -77 -104 -71 -35 -89 -48 -100 -76 -8 -18 -20 -34 -27 -34 -25
-2 -52 3 -58 12 -3 5 -25 13 -49 17 -35 6 -46 12 -51 32 -11 41 -10 95 5 177
30 163 37 199 47 248 5 28 11 89 14 137 3 74 1 88 -15 103 -17 16 -18 15 -25
-14 -13 -60 -25 -20 -19 62 7 91 19 117 41 94 12 -12 12 -22 3 -57 -6 -23 -9
-44 -7 -46 2 -2 42 36 88 86 104 112 117 121 187 126 32 3 86 8 122 12 89 10
289 6 320 -6z m269 -68 c-7 -8 -17 -13 -23 -11 -16 5 -7 70 12 85 15 12 17 9
20 -23 2 -20 -2 -43 -9 -51z m-879 32 c0 -2 -8 -10 -17 -17 -16 -13 -17 -12
-4 4 13 16 21 21 21 13z m-110 -22 c0 -17 -22 -14 -28 4 -2 7 3 12 12 12 9 0
16 -7 16 -16z m938 -99 c15 -24 33 -45 40 -45 14 0 17 -20 3 -20 -6 0 1 -24
14 -52 13 -29 27 -74 30 -100 6 -43 5 -48 -11 -48 -38 0 -48 18 -60 98 -7 47
-23 103 -40 138 -16 32 -30 62 -32 67 -2 4 4 7 13 7 8 0 28 -20 43 -45z m200
-147 c7 -7 12 -23 12 -37 l0 -26 -25 30 c-13 17 -24 33 -25 38 0 11 25 8 38
-5z m-1318 -118 c0 -25 -34 -92 -52 -101 -25 -14 -28 -11 -30 40 -1 46 5 57
42 64 14 2 28 5 33 6 4 0 7 -3 7 -9z m60 -35 c0 -25 -4 -45 -10 -45 -11 0 -13
33 -4 68 10 34 14 27 14 -23z m-49 -45 c-9 -23 -10 -21 -10 16 -1 22 2 44 7
48 11 12 14 -37 3 -64z m1369 15 c-19 -11 -21 -14 -7 -15 21 0 23 -30 2 -30
-8 0 -15 3 -15 8 0 4 -3 17 -6 30 -6 19 -3 22 22 22 l29 -1 -25 -14z m-970
-35 c-20 -13 -33 -13 -25 0 3 6 14 10 23 10 15 0 15 -2 2 -10z m460 -70 c0 -5
-4 -10 -10 -10 -5 0 -10 5 -10 10 0 6 5 10 10 10 6 0 10 -4 10 -10z m-935
-139 c-3 -5 7 -11 22 -13 22 -2 29 -9 31 -32 5 -38 -8 -49 -41 -37 -30 12 -57
53 -38 59 6 2 11 10 11 18 0 8 5 14 11 14 5 0 8 -4 4 -9z m23 -105 c20 -10 32
-24 32 -36 0 -11 -2 -20 -5 -20 -11 0 -160 84 -167 94 -24 35 18 38 67 6 22
-15 55 -35 73 -44z m-98 -75 c-29 -42 -36 -39 -8 3 13 19 24 33 26 31 3 -2 -6
-18 -18 -34z m710 -54 c5 -41 3 -49 -17 -62 -29 -19 -53 -19 -53 1 0 9 -5 12
-12 8 -12 -8 -12 -5 18 64 14 32 24 42 39 40 16 -2 21 -13 25 -51z m-643 0
c15 -9 20 -16 13 -26 -7 -12 -12 -12 -34 3 -15 9 -24 21 -21 26 8 13 15 12 42
-3z m94 -50 l-34 -32 28 38 c15 21 30 35 33 32 3 -3 -9 -20 -27 -38z m-41 12
c0 -5 -7 -9 -15 -9 -9 0 -12 6 -9 15 6 15 24 11 24 -6z m125 14 c15 -5 15 -8
-6 -24 -21 -16 -22 -20 -9 -30 12 -9 11 -10 -5 -4 -13 4 -24 -1 -36 -17 -33
-43 -31 -9 2 36 18 25 34 46 35 46 1 0 10 -3 19 -7z m-220 -62 c3 -5 1 -13 -5
-16 -15 -9 -43 3 -35 15 8 13 32 13 40 1z m55 -11 c0 -5 -5 -10 -11 -10 -5 0
-7 5 -4 10 3 6 8 10 11 10 2 0 4 -4 4 -10z m-106 -86 c9 -3 16 -13 16 -21 0
-20 -34 -12 -38 10 -4 19 -1 20 22 11z m1009 -61 c5 -23 0 -40 -16 -65 -28
-40 -52 -47 -67 -18 -10 19 -7 30 26 77 39 57 48 58 57 6z m-248 -190 c30 -22
29 -57 -2 -61 -27 -4 -99 60 -88 78 10 15 58 6 90 -17z m-764 -102 c-8 -5 -10
-14 -6 -21 5 -9 4 -11 -3 -6 -18 11 -14 36 6 36 13 0 14 -2 3 -9z"/>
<path d="M55 1770 c4 -6 11 -8 16 -5 14 9 11 15 -7 15 -8 0 -12 -5 -9 -10z"/>
</g>
</svg>
